<svg width="18" height="" viewBox="3 0 30 33" fill="none" xmlns="http://www.w3.org/2000/svg">
<mask id="mask0_109_87" style="mask-type:alpha" maskUnits="userSpaceOnUse" x="0" y="0" width="33" height="33">
<rect x="0.513672" y="0.563965" width="32" height="32" fill="#D9D9D9"/>
</mask>
<g mask="url(#mask0_109_87)">
<path d="M10.291 29.8971C9.06368 29.8971 8.01612 29.4632 7.14835 28.5955C6.28057 27.7277 5.84668 26.6801 5.84668 25.4528V7.6748C5.84668 6.44747 6.28057 5.39991 7.14835 4.53214C8.01612 3.66436 9.06368 3.23047 10.291 3.23047H27.18V23.2305C26.6096 23.2305 26.1337 23.4508 25.7523 23.8915C25.3708 24.3324 25.18 24.8528 25.18 25.4528C25.18 26.0528 25.3708 26.5731 25.7523 27.0138C26.1337 27.4545 26.6096 27.6748 27.18 27.6748V29.8971H10.291ZM8.06901 21.5971C8.39479 21.3971 8.7429 21.249 9.11335 21.1528C9.48379 21.0564 9.87635 21.0081 10.291 21.0081H11.18V5.4528H10.291C9.6739 5.4528 9.14924 5.6688 8.71701 6.1008C8.28501 6.53302 8.06901 7.05769 8.06901 7.6748V21.5971ZM13.4023 21.0081H24.9577V5.4528H13.4023V21.0081ZM10.281 27.6748H23.5243C23.3466 27.349 23.2077 26.999 23.1077 26.6248C23.0077 26.2508 22.9577 25.8601 22.9577 25.4528C22.9577 25.0379 23.0059 24.6452 23.1023 24.2748C23.1986 23.9046 23.3467 23.5565 23.5467 23.2305H10.2823C9.6659 23.2305 9.1429 23.4465 8.71335 23.8785C8.28379 24.3107 8.06901 24.8355 8.06901 25.4528C8.06901 26.075 8.28379 26.6009 8.71335 27.0305C9.1429 27.46 9.66546 27.6748 10.281 27.6748Z" fill="black"/>
</g>
</svg>
