<svg width="24" height="25" viewBox="0 0 24 25" fill="none" xmlns="http://www.w3.org/2000/svg">
<path d="M4.64594 11.1248L11.5209 -0.000244141L18.3959 11.1248H4.64594ZM18.5 24.9998C16.9515 24.9998 15.6476 24.4703 14.5884 23.4113C13.5295 22.3522 13 21.0483 13 19.4998C13 17.9512 13.5295 16.6474 14.5884 15.5882C15.6476 14.5292 16.9515 13.9998 18.5 13.9998C20.0485 13.9998 21.3524 14.5292 22.4116 15.5882C23.4705 16.6474 24 17.9512 24 19.4998C24 21.0483 23.4705 22.3522 22.4116 23.4113C21.3524 24.4703 20.0485 24.9998 18.5 24.9998ZM0.25 24.2707V14.6038H9.91656V24.2707H0.25ZM18.5019 22.9163C19.459 22.9163 20.2674 22.5859 20.9272 21.9251C21.5868 21.2642 21.9166 20.4552 21.9166 19.4979C21.9166 18.5408 21.5861 17.7324 20.9253 17.0726C20.2645 16.413 19.4554 16.0832 18.4981 16.0832C17.541 16.0832 16.7326 16.4136 16.0728 17.0744C15.4132 17.7353 15.0834 18.5443 15.0834 19.5016C15.0834 20.4587 15.4139 21.2672 16.0747 21.9269C16.7355 22.5865 17.5446 22.9163 18.5019 22.9163ZM2.33344 22.1873H7.83344V16.6873H2.33344V22.1873ZM8.375 9.04132H14.6666L11.5209 3.95819L8.375 9.04132Z" fill="black"/>
</svg>
