<svg width="20" height="33" viewBox="0 0 33 33" fill="none" xmlns="http://www.w3.org/2000/svg">
<mask id="mask0_118_362" style="mask-type:alpha" maskUnits="userSpaceOnUse" x="0" y="0" width="33" height="33">
<rect x="0.583984" y="0.184082" width="32" height="32" fill="#D9D9D9"/>
</mask>
<g mask="url(#mask0_118_362)">
<path d="M10.9841 7.15067L9.65081 3.15067L11.5175 2.55067L12.8508 6.51733L10.9841 7.15067ZM15.5841 5.51733V1.51733H17.5841V5.51733H15.5841ZM22.1841 7.15067L20.3175 6.51733L21.6508 2.55067L23.5175 3.184L22.1841 7.15067ZM3.45081 30.8507L3.05081 28.2173L10.0841 27.1507C10.3286 27.1062 10.5453 27.0007 10.7341 26.834C10.923 26.6673 11.0619 26.4618 11.1508 26.2173L12.2841 22.684C12.3953 22.3729 12.3953 22.0729 12.2841 21.784C12.173 21.4951 11.973 21.2729 11.6841 21.1173L10.5841 24.584L8.05081 23.784L10.9841 14.5173C11.0286 14.384 11.0508 14.2396 11.0508 14.084C11.0508 13.9284 11.0286 13.784 10.9841 13.6507L6.51748 22.0507C6.16193 22.6951 5.66748 23.2118 5.03415 23.6007C4.40081 23.9896 3.71748 24.184 2.98415 24.184H1.91748V21.5173H2.98415C3.22859 21.5173 3.45637 21.4562 3.66748 21.334C3.87859 21.2118 4.0397 21.0396 4.15081 20.8173L10.0508 9.684L11.7175 10.6173C12.5397 11.084 13.123 11.7562 13.4675 12.634C13.8119 13.5118 13.8397 14.4062 13.5508 15.3173L12.5175 18.584C13.4953 18.9618 14.2008 19.6284 14.6341 20.584C15.0675 21.5396 15.1286 22.5173 14.8175 23.5173L13.6841 27.0507C13.4397 27.7618 13.0341 28.3673 12.4675 28.8673C11.9008 29.3673 11.2397 29.6729 10.4841 29.784L3.45081 30.8507ZM29.7175 30.8507L22.6841 29.784C21.9286 29.6729 21.2675 29.3673 20.7008 28.8673C20.1341 28.3673 19.7286 27.7618 19.4841 27.0507L18.3508 23.5173C18.0397 22.5173 18.1008 21.5396 18.5341 20.584C18.9675 19.6284 19.673 18.9618 20.6508 18.584L19.6175 15.3173C19.3286 14.4062 19.3564 13.5118 19.7008 12.634C20.0453 11.7562 20.6286 11.084 21.4508 10.6173L23.1175 9.684L29.0175 20.8173C29.1286 21.0396 29.2897 21.2118 29.5008 21.334C29.7119 21.4562 29.9397 21.5173 30.1841 21.5173H31.2508V24.184H30.1841C29.4508 24.184 28.7675 23.9896 28.1341 23.6007C27.5008 23.2118 27.0064 22.6951 26.6508 22.0507L22.1841 13.6507C22.1397 13.784 22.1175 13.9284 22.1175 14.084C22.1175 14.2396 22.1397 14.384 22.1841 14.5173L25.1175 23.784L22.5841 24.584L21.4841 21.1173C21.1953 21.2729 20.9953 21.4951 20.8841 21.784C20.773 22.0729 20.773 22.3729 20.8841 22.684L22.0175 26.2173C22.1064 26.4618 22.2453 26.6673 22.4341 26.834C22.623 27.0007 22.8397 27.1062 23.0841 27.1507L30.1175 28.2173L29.7175 30.8507Z" fill="black"/>
</g>
</svg>
