<svg width="33" height="33" viewBox="0 0 33 33" fill="none" xmlns="http://www.w3.org/2000/svg">
<mask id="mask0_530_413" style="mask-type:alpha" maskUnits="userSpaceOnUse" x="0" y="0" width="33" height="33">
<rect x="0.273926" y="0.563965" width="32" height="32" fill="#D9D9D9"/>
</mask>
<g mask="url(#mask0_530_413)">
<path d="M25.4765 28.5621L18.1765 21.2621L20.9765 18.4621L28.2765 25.7621L25.4765 28.5621ZM7.07653 28.5621L4.27653 25.7621L13.4765 16.5621L11.2099 14.2955L10.2765 15.2288L8.57653 13.5288V16.2621L7.6432 17.1955L3.60986 13.1621L4.5432 12.2288H7.27653L5.60986 10.5621L10.3432 5.82881C10.7876 5.38436 11.2654 5.06214 11.7765 4.86214C12.2876 4.66214 12.8099 4.56214 13.3432 4.56214C13.8765 4.56214 14.3988 4.66214 14.9099 4.86214C15.421 5.06214 15.8988 5.38436 16.3432 5.82881L13.2765 8.89548L14.9432 10.5621L14.0099 11.4955L16.2765 13.7621L19.2765 10.7621C19.1876 10.5177 19.1154 10.2621 19.0599 9.99548C19.0043 9.72881 18.9765 9.46214 18.9765 9.19548C18.9765 7.88436 19.4265 6.77881 20.3265 5.87881C21.2265 4.97881 22.3321 4.52881 23.6432 4.52881C23.9765 4.52881 24.2932 4.56214 24.5932 4.62881C24.8932 4.69548 25.1988 4.79548 25.5099 4.92881L22.2099 8.22881L24.6099 10.6288L27.9099 7.32881C28.0654 7.63992 28.171 7.94548 28.2265 8.24548C28.2821 8.54548 28.3099 8.86214 28.3099 9.19548C28.3099 10.5066 27.8599 11.6121 26.9599 12.5121C26.0599 13.4121 24.9543 13.8621 23.6432 13.8621C23.3765 13.8621 23.1099 13.8399 22.8432 13.7955C22.5765 13.751 22.321 13.6733 22.0765 13.5621L7.07653 28.5621Z" fill="black"/>
</g>
</svg>
