<svg width="18" height="18" viewBox="0 0 17 16" fill="white" xmlns="http://www.w3.org/2000/svg">
<path d="M8.07617 15.0487L6.91617 14.0087C5.56951 12.7953 4.45617 11.7487 3.57617 10.8687C2.69617 9.98865 1.99617 9.19865 1.47617 8.49865C0.956172 7.79865 0.592839 7.15532 0.386172 6.56865C0.179505 5.98199 0.0761719 5.38199 0.0761719 4.76865C0.0761719 3.51532 0.496172 2.46865 1.33617 1.62865C2.17617 0.788652 3.22284 0.368652 4.47617 0.368652C5.16951 0.368652 5.82951 0.515319 6.45617 0.808652C7.08284 1.10199 7.62284 1.51532 8.07617 2.04865C8.5295 1.51532 9.06951 1.10199 9.69617 0.808652C10.3228 0.515319 10.9828 0.368652 11.6762 0.368652C12.9295 0.368652 13.9762 0.788652 14.8162 1.62865C15.6562 2.46865 16.0762 3.51532 16.0762 4.76865C16.0762 5.38199 15.9728 5.98199 15.7662 6.56865C15.5595 7.15532 15.1962 7.79865 14.6762 8.49865C14.1562 9.19865 13.4562 9.98865 12.5762 10.8687C11.6962 11.7487 10.5828 12.7953 9.23617 14.0087L8.07617 15.0487ZM8.07617 12.8887C9.35617 11.742 10.4095 10.7587 11.2362 9.93865C12.0628 9.11865 12.7162 8.40532 13.1962 7.79865C13.6762 7.19199 14.0095 6.65199 14.1962 6.17865C14.3828 5.70532 14.4762 5.23532 14.4762 4.76865C14.4762 3.96865 14.2095 3.30199 13.6762 2.76865C13.1428 2.23532 12.4762 1.96865 11.6762 1.96865C11.0495 1.96865 10.4695 2.14532 9.93617 2.49865C9.40284 2.85199 9.03617 3.30199 8.83617 3.84865H7.31617C7.11617 3.30199 6.74951 2.85199 6.21617 2.49865C5.68284 2.14532 5.10284 1.96865 4.47617 1.96865C3.67617 1.96865 3.00951 2.23532 2.47617 2.76865C1.94284 3.30199 1.67617 3.96865 1.67617 4.76865C1.67617 5.23532 1.76951 5.70532 1.95617 6.17865C2.14284 6.65199 2.47617 7.19199 2.95617 7.79865C3.43617 8.40532 4.08951 9.11865 4.91617 9.93865C5.74284 10.7587 6.79617 11.742 8.07617 12.8887Z" fill="#FF3B30"/>
</svg>
