<svg width="24" height="24" viewBox="0 0 24 24" fill="none" xmlns="http://www.w3.org/2000/svg">
<path fill-rule="evenodd" clip-rule="evenodd" d="M5.32342 11.7335C5.32342 10.9714 5.45 10.2407 5.67592 9.55538L1.72151 6.53564C0.950817 8.10044 0.516602 9.86364 0.516602 11.7335C0.516602 13.6018 0.950283 15.3639 1.71991 16.9276L5.67218 13.902C5.4484 13.2199 5.32342 12.4919 5.32342 11.7335Z" fill="#FBBC05"/>
<path fill-rule="evenodd" clip-rule="evenodd" d="M12.2668 4.8C13.9225 4.8 15.4179 5.38667 16.5929 6.34667L20.0111 2.93333C17.9281 1.12 15.2577 0 12.2668 0C7.62338 0 3.63266 2.65547 1.72168 6.53547L5.67609 9.5552C6.58725 6.78933 9.18453 4.8 12.2668 4.8Z" fill="#EB4335"/>
<path fill-rule="evenodd" clip-rule="evenodd" d="M12.2668 18.6668C9.18453 18.6668 6.58725 16.6775 5.67609 13.9116L1.72168 16.9308C3.63266 20.8114 7.62338 23.4668 12.2668 23.4668C15.1327 23.4668 17.8689 22.4492 19.9224 20.5426L16.1688 17.6407C15.1097 18.3079 13.7761 18.6668 12.2668 18.6668Z" fill="#34A853"/>
<path fill-rule="evenodd" clip-rule="evenodd" d="M23.4825 11.7334C23.4825 11.0401 23.3757 10.2934 23.2155 9.6001H12.2666V14.1334H18.5689C18.2538 15.679 17.396 16.8673 16.1687 17.6406L19.9223 20.5425C22.0795 18.5404 23.4825 15.558 23.4825 11.7334Z" fill="#4285F4"/>
</svg>
