<svg width="32" height="32" viewBox="0 0 32 32" fill="none" xmlns="http://www.w3.org/2000/svg">
<mask id="mask0_138_975" style="mask-type:alpha" maskUnits="userSpaceOnUse" x="0" y="0" width="32" height="32">
<rect y="32" width="32" height="32" transform="rotate(-90 0 32)" fill="#D9D9D9"/>
</mask>
<g mask="url(#mask0_138_975)">
<path d="M21.0227 15.9999L19.467 14.4443L17.1113 16.7999L17.1113 10.8889H14.8893L14.8893 16.7999L12.5337 14.4443L10.978 15.9999L16.0003 21.0223L21.0227 15.9999ZM29.3337 15.9999C29.3337 17.8295 28.9837 19.5554 28.2837 21.1776C27.5837 22.7998 26.63 24.2147 25.4227 25.4223C24.2151 26.6296 22.8002 27.5833 21.178 28.2833C19.5558 28.9833 17.8299 29.3333 16.0003 29.3333C14.1559 29.3333 12.4225 28.9833 10.8003 28.2833C9.1781 27.5833 7.76699 26.6296 6.56699 25.4223C5.36699 24.2147 4.41699 22.7998 3.71699 21.1776C3.01699 19.5554 2.66699 17.8295 2.66699 15.9999C2.66699 14.1555 3.01699 12.4221 3.71699 10.7999C4.41699 9.17769 5.36699 7.76658 6.56699 6.56659C7.76699 5.36658 9.1781 4.41658 10.8003 3.71659C12.4225 3.01658 14.1559 2.66658 16.0003 2.66658C17.8299 2.66658 19.5558 3.01658 21.178 3.71659C22.8002 4.41658 24.2151 5.36658 25.4227 6.56659C26.63 7.76658 27.5837 9.17769 28.2837 10.7999C28.9837 12.4221 29.3337 14.1555 29.3337 15.9999ZM27.1113 15.9999C27.1113 12.9037 26.0299 10.2778 23.867 8.12225C21.7041 5.96669 19.0819 4.88892 16.0003 4.88892C12.9041 4.88892 10.2782 5.96669 8.12266 8.12225C5.9671 10.2778 4.88932 12.9037 4.88932 15.9999C4.88932 19.0815 5.9671 21.7037 8.12266 23.8666C10.2782 26.0295 12.9041 27.1109 16.0003 27.1109C19.0819 27.1109 21.7041 26.0295 23.867 23.8666C26.0299 21.7037 27.1113 19.0815 27.1113 15.9999Z" fill="black"/>
</g>
</svg>
