<svg width="33" height="33" viewBox="0 0 33 33" fill="none" xmlns="http://www.w3.org/2000/svg">
<mask id="mask0_181_38" style="mask-type:alpha" maskUnits="userSpaceOnUse" x="0" y="0" width="33" height="33">
<rect x="0.5" y="0.5" width="32" height="32" fill="#D9D9D9"/>
</mask>
<g mask="url(#mask0_181_38)">
<path d="M0.5 24.5V22.4C0.5 21.4444 0.988889 20.6667 1.96667 20.0667C2.94444 19.4667 4.23333 19.1667 5.83333 19.1667C6.12222 19.1667 6.4 19.1722 6.66667 19.1833C6.93333 19.1944 7.18889 19.2222 7.43333 19.2667C7.12222 19.7333 6.88889 20.2222 6.73333 20.7333C6.57778 21.2444 6.5 21.7778 6.5 22.3333V24.5H0.5ZM8.5 24.5V22.3333C8.5 21.6222 8.69444 20.9722 9.08333 20.3833C9.47222 19.7944 10.0222 19.2778 10.7333 18.8333C11.4444 18.3889 12.2944 18.0556 13.2833 17.8333C14.2722 17.6111 15.3444 17.5 16.5 17.5C17.6778 17.5 18.7611 17.6111 19.75 17.8333C20.7389 18.0556 21.5889 18.3889 22.3 18.8333C23.0111 19.2778 23.5556 19.7944 23.9333 20.3833C24.3111 20.9722 24.5 21.6222 24.5 22.3333V24.5H8.5ZM26.5 24.5V22.3333C26.5 21.7556 26.4278 21.2111 26.2833 20.7C26.1389 20.1889 25.9222 19.7111 25.6333 19.2667C25.8778 19.2222 26.1278 19.1944 26.3833 19.1833C26.6389 19.1722 26.9 19.1667 27.1667 19.1667C28.7667 19.1667 30.0556 19.4611 31.0333 20.05C32.0111 20.6389 32.5 21.4222 32.5 22.4V24.5H26.5ZM11.3333 21.8333H21.7C21.4778 21.3889 20.8611 21 19.85 20.6667C18.8389 20.3333 17.7222 20.1667 16.5 20.1667C15.2778 20.1667 14.1611 20.3333 13.15 20.6667C12.1389 21 11.5333 21.3889 11.3333 21.8333ZM5.83333 17.8333C5.1 17.8333 4.47222 17.5722 3.95 17.05C3.42778 16.5278 3.16667 15.9 3.16667 15.1667C3.16667 14.4111 3.42778 13.7778 3.95 13.2667C4.47222 12.7556 5.1 12.5 5.83333 12.5C6.58889 12.5 7.22222 12.7556 7.73333 13.2667C8.24444 13.7778 8.5 14.4111 8.5 15.1667C8.5 15.9 8.24444 16.5278 7.73333 17.05C7.22222 17.5722 6.58889 17.8333 5.83333 17.8333ZM27.1667 17.8333C26.4333 17.8333 25.8056 17.5722 25.2833 17.05C24.7611 16.5278 24.5 15.9 24.5 15.1667C24.5 14.4111 24.7611 13.7778 25.2833 13.2667C25.8056 12.7556 26.4333 12.5 27.1667 12.5C27.9222 12.5 28.5556 12.7556 29.0667 13.2667C29.5778 13.7778 29.8333 14.4111 29.8333 15.1667C29.8333 15.9 29.5778 16.5278 29.0667 17.05C28.5556 17.5722 27.9222 17.8333 27.1667 17.8333ZM16.5 16.5C15.3889 16.5 14.4444 16.1111 13.6667 15.3333C12.8889 14.5556 12.5 13.6111 12.5 12.5C12.5 11.3667 12.8889 10.4167 13.6667 9.65C14.4444 8.88333 15.3889 8.5 16.5 8.5C17.6333 8.5 18.5833 8.88333 19.35 9.65C20.1167 10.4167 20.5 11.3667 20.5 12.5C20.5 13.6111 20.1167 14.5556 19.35 15.3333C18.5833 16.1111 17.6333 16.5 16.5 16.5ZM16.5 13.8333C16.8778 13.8333 17.1944 13.7056 17.45 13.45C17.7056 13.1944 17.8333 12.8778 17.8333 12.5C17.8333 12.1222 17.7056 11.8056 17.45 11.55C17.1944 11.2944 16.8778 11.1667 16.5 11.1667C16.1222 11.1667 15.8056 11.2944 15.55 11.55C15.2944 11.8056 15.1667 12.1222 15.1667 12.5C15.1667 12.8778 15.2944 13.1944 15.55 13.45C15.8056 13.7056 16.1222 13.8333 16.5 13.8333Z" fill="black"/>
</g>
</svg>
