<svg width="23" height="23" viewBox="0 0 23 23" fill="#e60036" xmlns="http://www.w3.org/2000/svg">
<mask id="mask0_109_129" style="mask-type:alpha" maskUnits="userSpaceOnUse" x="0" y="0" width="23" height="23">
<rect x="0.823242" y="0.563965" width="22" height="22" fill="#e60036"/>
</mask>
<g mask="url(#mask0_109_129)">
<path d="M15.5809 12.2358L11.8072 8.55399C11.3507 8.11858 10.9642 7.63611 10.6477 7.10658C10.3309 6.5769 10.1726 6.00008 10.1726 5.37614C10.1726 4.55618 10.4489 3.8547 11.0015 3.2717C11.5539 2.68855 12.235 2.39697 13.0447 2.39697C13.5541 2.39697 14.0227 2.52049 14.4504 2.76753C14.8782 3.01442 15.2551 3.32884 15.5809 3.71079C15.9068 3.32884 16.2836 3.01442 16.7114 2.76753C17.1392 2.52049 17.6078 2.39697 18.1171 2.39697C18.9268 2.39697 19.6079 2.68855 20.1604 3.2717C20.713 3.8547 20.9893 4.55618 20.9893 5.37614C20.9893 5.99917 20.8314 6.57506 20.5156 7.10383C20.1999 7.63259 19.8155 8.11598 19.3622 8.55399L15.5809 12.2358ZM15.5809 10.1123L18.2468 7.47691C18.5486 7.17792 18.8265 6.85923 19.0805 6.52083C19.3344 6.18258 19.4614 5.80101 19.4614 5.37614C19.4614 4.97892 19.3341 4.63769 19.0796 4.35245C18.8249 4.06737 18.5041 3.92483 18.1171 3.92483C17.8421 3.92483 17.5862 3.9948 17.3494 4.13474C17.1126 4.27484 16.905 4.45436 16.7268 4.67329L15.5809 6.06364L14.4351 4.67329C14.2568 4.45436 14.0493 4.27484 13.8124 4.13474C13.5756 3.9948 13.3197 3.92483 13.0447 3.92483C12.6578 3.92483 12.3369 4.06737 12.0822 4.35245C11.8277 4.63769 11.7004 4.97892 11.7004 5.37614C11.7004 5.80101 11.8274 6.18258 12.0813 6.52083C12.3354 6.85923 12.6133 7.17792 12.915 7.47691L15.5809 10.1123ZM6.85724 17.8275L13.6713 19.7832L19.2781 18.0261C19.2527 17.7767 19.1369 17.5666 18.9307 17.3959C18.7244 17.2253 18.4838 17.14 18.2088 17.14H13.4726C13.1721 17.14 12.9022 17.1222 12.6629 17.0866C12.4235 17.051 12.1841 16.9924 11.9447 16.9108L9.76765 16.2311L10.226 14.7032L12.2809 15.3983C12.4795 15.4646 12.6959 15.5155 12.9302 15.5511C13.1645 15.5867 13.4523 15.6071 13.7934 15.6123H14.6489C14.6489 15.3424 14.5611 15.103 14.3854 14.8941C14.2097 14.6854 13.9971 14.5326 13.7476 14.4358L8.62961 12.5108H6.85724V17.8275ZM1.73926 20.7303V10.9832H8.61426C8.70424 10.9832 8.79423 10.992 8.88422 11.0097C8.9742 11.0276 9.05991 11.0518 9.14134 11.0824L14.2671 12.9998C14.8222 13.2035 15.2868 13.5396 15.6611 14.0082C16.0354 14.4766 16.2226 15.0113 16.2226 15.6123H18.2088C18.9811 15.6123 19.6376 15.8847 20.1782 16.4295C20.7189 16.9745 20.9893 17.6442 20.9893 18.4386V19.1415L13.7629 21.372L6.85724 19.4165V20.7303H1.73926ZM3.26711 19.2025H5.31426V12.5108H3.26711V19.2025Z" fill="#e60036"/>
</g>
</svg>
