<svg width="24" height="24" viewBox="0 0 24 24" fill="#D9D9D9" xmlns="http://www.w3.org/2000/svg">
<mask id="mask0_242_116" style="mask-type:alpha" maskUnits="userSpaceOnUse" x="0" y="0" width="24" height="24">
<rect width="24" height="24" fill="#D9D9D9"/>
</mask>
<g mask="url(#mask0_242_116)">
<path d="M19.8 20.9834L13.3168 14.5001C12.8168 14.9223 12.2364 15.2529 11.5758 15.4919C10.9151 15.7307 10.2121 15.8501 9.46675 15.8501C7.65942 15.8501 6.12975 15.2237 4.87775 13.9709C3.62592 12.7182 3 11.2002 3 9.4169C3 7.63356 3.62642 6.11548 4.87925 4.86265C6.13192 3.60981 7.65275 2.9834 9.44175 2.9834C11.2306 2.9834 12.7486 3.60981 13.9958 4.86265C15.2431 6.11548 15.8668 7.6344 15.8668 9.4194C15.8668 10.1399 15.7501 10.8307 15.5168 11.4919C15.2834 12.1529 14.9445 12.7612 14.5 13.3169L21 19.7834L19.8 20.9834ZM9.45 14.1834C10.7695 14.1834 11.891 13.7181 12.8145 12.7876C13.7382 11.8571 14.2 10.7336 14.2 9.4169C14.2 8.10023 13.7382 6.97657 12.8145 6.0459C11.891 5.1154 10.7695 4.65015 9.45 4.65015C8.12133 4.65015 6.99192 5.1154 6.06175 6.0459C5.13175 6.97657 4.66675 8.10023 4.66675 9.4169C4.66675 10.7336 5.13175 11.8571 6.06175 12.7876C6.99192 13.7181 8.12133 14.1834 9.45 14.1834Z" fill="#606060"/>
</g>
</svg>
