<svg width="21" height="17" viewBox="0 0 21 17" fill="none" xmlns="http://www.w3.org/2000/svg">
<path d="M6 7.0166V5.0166H0V7.0166H6ZM13 8.0166C14.1 8.0166 15.0417 7.62494 15.825 6.8416C16.6083 6.05827 17 5.1166 17 4.0166C17 2.9166 16.6083 1.97494 15.825 1.1916C15.0417 0.408268 14.1 0.0166016 13 0.0166016C11.9 0.0166016 10.9583 0.408268 10.175 1.1916C9.39167 1.97494 9 2.9166 9 4.0166C9 5.1166 9.39167 6.05827 10.175 6.8416C10.9583 7.62494 11.9 8.0166 13 8.0166ZM21 16.0166V13.2166C21 12.6499 20.8542 12.1291 20.5625 11.6541C20.2708 11.1791 19.8833 10.8166 19.4 10.5666C18.3667 10.0499 17.3167 9.66243 16.25 9.4041C15.1833 9.14577 14.1 9.0166 13 9.0166C11.9 9.0166 10.8167 9.14577 9.75 9.4041C8.68333 9.66243 7.63333 10.0499 6.6 10.5666C6.11667 10.8166 5.72917 11.1791 5.4375 11.6541C5.14583 12.1291 5 12.6499 5 13.2166V16.0166H21ZM19 14.0166H7V13.2166C7 13.0333 7.04583 12.8666 7.1375 12.7166C7.22917 12.5666 7.35 12.4499 7.5 12.3666C8.4 11.9166 9.30833 11.5791 10.225 11.3541C11.1417 11.1291 12.0667 11.0166 13 11.0166C13.9333 11.0166 14.8583 11.1291 15.775 11.3541C16.6917 11.5791 17.6 11.9166 18.5 12.3666C18.65 12.4499 18.7708 12.5666 18.8625 12.7166C18.9542 12.8666 19 13.0333 19 13.2166V14.0166ZM13 6.0166C12.45 6.0166 11.9792 5.82077 11.5875 5.4291C11.1958 5.03743 11 4.5666 11 4.0166C11 3.4666 11.1958 2.99577 11.5875 2.6041C11.9792 2.21244 12.45 2.0166 13 2.0166C13.55 2.0166 14.0208 2.21244 14.4125 2.6041C14.8042 2.99577 15 3.4666 15 4.0166C15 4.5666 14.8042 5.03743 14.4125 5.4291C14.0208 5.82077 13.55 6.0166 13 6.0166Z" fill="#1C1B1F"/>
</svg>
