<svg width="22" height="23" viewBox="0 0 22 23" fill="none" xmlns="http://www.w3.org/2000/svg">
<path d="M11.0002 11.5002C9.5335 11.5002 8.27794 10.9779 7.2335 9.9335C6.18905 8.88905 5.66683 7.6335 5.66683 6.16683C5.66683 4.70016 6.18905 3.44461 7.2335 2.40016C8.27794 1.35572 9.5335 0.833496 11.0002 0.833496C12.4668 0.833496 13.7224 1.35572 14.7668 2.40016C15.8113 3.44461 16.3335 4.70016 16.3335 6.16683C16.3335 7.6335 15.8113 8.88905 14.7668 9.9335C13.7224 10.9779 12.4668 11.5002 11.0002 11.5002ZM0.333496 22.1668V18.4335C0.333496 17.6779 0.527941 16.9835 0.916829 16.3502C1.30572 15.7168 1.82239 15.2335 2.46683 14.9002C3.84461 14.2113 5.24461 13.6946 6.66683 13.3502C8.08905 13.0057 9.5335 12.8335 11.0002 12.8335C12.4668 12.8335 13.9113 13.0057 15.3335 13.3502C16.7557 13.6946 18.1557 14.2113 19.5335 14.9002C20.1779 15.2335 20.6946 15.7168 21.0835 16.3502C21.4724 16.9835 21.6668 17.6779 21.6668 18.4335V22.1668H0.333496ZM3.00016 19.5002H19.0002V18.4335C19.0002 18.1891 18.9391 17.9668 18.8168 17.7668C18.6946 17.5668 18.5335 17.4113 18.3335 17.3002C17.1335 16.7002 15.9224 16.2502 14.7002 15.9502C13.4779 15.6502 12.2446 15.5002 11.0002 15.5002C9.75572 15.5002 8.52239 15.6502 7.30016 15.9502C6.07794 16.2502 4.86683 16.7002 3.66683 17.3002C3.46683 17.4113 3.30572 17.5668 3.1835 17.7668C3.06127 17.9668 3.00016 18.1891 3.00016 18.4335V19.5002ZM11.0002 8.8335C11.7335 8.8335 12.3613 8.57239 12.8835 8.05016C13.4057 7.52794 13.6668 6.90016 13.6668 6.16683C13.6668 5.4335 13.4057 4.80572 12.8835 4.2835C12.3613 3.76127 11.7335 3.50016 11.0002 3.50016C10.2668 3.50016 9.63905 3.76127 9.11683 4.2835C8.59461 4.80572 8.3335 5.4335 8.3335 6.16683C8.3335 6.90016 8.59461 7.52794 9.11683 8.05016C9.63905 8.57239 10.2668 8.8335 11.0002 8.8335Z" fill="black"/>
</svg>
