<svg width="23" height="25" viewBox="0 0 23 25" fill="none" xmlns="http://www.w3.org/2000/svg">
<path d="M11.5007 12.5024L1.26937 23.2554L0.957946 23.586C0.764333 23.3085 0.633855 22.9779 0.604414 22.6107C0.596003 22.5455 0.591797 22.4801 0.591797 22.4148V2.58582C0.591797 2.14107 0.730686 1.74113 0.957946 1.41455L11.5007 12.5024Z" fill="#3A9BC8"/>
<path d="M16.1018 7.6625L11.5017 12.5025L0.958984 1.41463C1.5566 0.565866 2.77711 0.202726 3.81247 0.782194L16.1018 7.6625Z" fill="#9BCD83"/>
<path d="M22.5899 12.5596C22.573 13.2371 22.2153 13.9145 21.5209 14.3022L16.1001 17.3383L11.5 12.5025L16.1001 7.6626L19.5091 9.57252L21.5209 10.6987C22.2574 11.111 22.6152 11.8373 22.5899 12.5596Z" fill="#EEB84C"/>
<path d="M0.958984 23.5855C1.55689 24.4347 2.77663 24.7967 3.81006 24.2182L16.0992 17.3384L11.4991 12.5005L0.958984 23.5855Z" fill="#B43F70"/>
<path opacity="0.2" d="M21.8762 17.186C21.7612 16.6461 21.4317 16.1474 20.886 15.8324L18.9353 14.7062L15.6298 12.7963L3.71367 5.91598C2.70975 5.33651 1.5263 5.69966 0.946828 6.54842C0.726469 6.875 0.591797 7.27494 0.591797 7.71969V19.1441C2.31122 19.29 4.07114 19.3665 5.86294 19.3665C8.11219 19.3665 10.309 19.2426 12.4403 19.0147L11.1735 17.6406L12.4409 19.0147C15.7787 18.658 18.9465 18.0346 21.8762 17.186Z" fill="white"/>
</svg>
