<svg width="20" height="" viewBox="0 0 34 34" fill="none" xmlns="http://www.w3.org/2000/svg">
<mask id="mask0_598_317" style="mask-type:alpha" maskUnits="userSpaceOnUse" x="0" y="0" width="33" height="33">
<rect x="0.273926" y="0.184082" width="32" height="32" fill="#D9D9D9"/>
</mask>
<g mask="url(#mask0_598_317)">
<path d="M8.07132 16.1854L7.67132 14.1854C7.40466 14.0743 7.15466 13.9576 6.92132 13.8354C6.68799 13.7132 6.4491 13.5632 6.20466 13.3854L4.27132 13.9854L2.93799 11.7187L4.47132 10.3854C4.42688 10.0965 4.40466 9.80761 4.40466 9.51872C4.40466 9.22983 4.42688 8.94094 4.47132 8.65205L2.93799 7.31872L4.27132 5.05205L6.20466 5.65205C6.4491 5.47427 6.68799 5.32427 6.92132 5.20205C7.15466 5.07983 7.40466 4.96316 7.67132 4.85205L8.07132 2.85205H10.738L11.138 4.85205C11.4047 4.96316 11.6547 5.07983 11.888 5.20205C12.1213 5.32427 12.3602 5.47427 12.6047 5.65205L14.538 5.05205L15.8713 7.31872L14.338 8.65205C14.3824 8.94094 14.4047 9.22983 14.4047 9.51872C14.4047 9.80761 14.3824 10.0965 14.338 10.3854L15.8713 11.7187L14.538 13.9854L12.6047 13.3854C12.3602 13.5632 12.1213 13.7132 11.888 13.8354C11.6547 13.9576 11.4047 14.0743 11.138 14.1854L10.738 16.1854H8.07132ZM9.40466 12.1854C10.138 12.1854 10.7658 11.9243 11.288 11.4021C11.8102 10.8798 12.0713 10.2521 12.0713 9.51872C12.0713 8.78538 11.8102 8.15761 11.288 7.63538C10.7658 7.11316 10.138 6.85205 9.40466 6.85205C8.67132 6.85205 8.04354 7.11316 7.52132 7.63538C6.9991 8.15761 6.73799 8.78538 6.73799 9.51872C6.73799 10.2521 6.9991 10.8798 7.52132 11.4021C8.04354 11.9243 8.67132 12.1854 9.40466 12.1854ZM20.0047 30.8521L19.4047 28.0521C19.0269 27.9187 18.6769 27.7576 18.3547 27.5687C18.0324 27.3798 17.7158 27.1632 17.4047 26.9187L14.738 27.7854L12.8713 24.5854L15.0047 22.7187C14.9602 22.3187 14.938 21.9187 14.938 21.5187C14.938 21.1187 14.9602 20.7187 15.0047 20.3187L12.8713 18.4521L14.738 15.2521L17.4047 16.1187C17.7158 15.8743 18.0324 15.6576 18.3547 15.4687C18.6769 15.2798 19.0269 15.1187 19.4047 14.9854L20.0047 12.1854H23.738L24.338 14.9854C24.7158 15.1187 25.0658 15.2798 25.388 15.4687C25.7102 15.6576 26.0269 15.8743 26.338 16.1187L29.0047 15.2521L30.8713 18.4521L28.738 20.3187C28.7824 20.7187 28.8047 21.1187 28.8047 21.5187C28.8047 21.9187 28.7824 22.3187 28.738 22.7187L30.8713 24.5854L29.0047 27.7854L26.338 26.9187C26.0269 27.1632 25.7102 27.3798 25.388 27.5687C25.0658 27.7576 24.7158 27.9187 24.338 28.0521L23.738 30.8521H20.0047ZM21.8713 25.5187C22.9824 25.5187 23.9269 25.1298 24.7047 24.3521C25.4824 23.5743 25.8713 22.6298 25.8713 21.5187C25.8713 20.4076 25.4824 19.4632 24.7047 18.6854C23.9269 17.9076 22.9824 17.5187 21.8713 17.5187C20.7602 17.5187 19.8158 17.9076 19.038 18.6854C18.2602 19.4632 17.8713 20.4076 17.8713 21.5187C17.8713 22.6298 18.2602 23.5743 19.038 24.3521C19.8158 25.1298 20.7602 25.5187 21.8713 25.5187Z" fill="black"/>
</g>
</svg>
