<svg width="40" height="" viewBox="0 0 61 61" fill="none" xmlns="http://www.w3.org/2000/svg">
<g clip-path="url(#clip0_585_338)">
<path d="M15.2737 39.8791L21.8737 37.4791C21.8737 37.4791 24.8737 38.0791 27.8737 37.4791C31.4737 36.8791 31.4737 33.2791 32.0737 31.4791C32.6737 29.6791 30.8737 30.8791 33.2737 32.6791C35.6737 34.4791 39.8737 34.4791 41.6737 33.2791C44.0737 32.0791 44.0737 29.6791 44.0737 29.6791L47.6737 28.4791C48.2737 25.4791 50.0737 23.0791 53.6737 23.0791C57.8737 23.0791 59.6737 27.8791 59.6737 27.8791L52.4737 27.2791L51.8737 32.6791L58.4737 33.2791C57.8737 35.0791 56.0737 37.4791 51.8737 36.8791C49.4737 36.2791 48.2737 35.6791 48.2737 35.6791L15.8737 46.4791C15.8737 46.4791 15.2737 48.2791 14.0737 49.4791C12.8737 50.6791 10.4737 51.2791 8.07373 50.6791C5.07373 50.0791 2.67373 47.6791 2.07373 45.8791L10.4737 46.4791L11.0737 41.0791L3.87373 40.4791C5.07373 38.0791 6.87373 36.8791 9.27373 36.8791C13.4737 36.8791 15.2737 39.8791 15.2737 39.8791Z" fill="#1E90FF" stroke="#1E90FF" stroke-width="0.9"/>
<path d="M20.0737 35.0792C20.6737 38.0792 27.2737 39.2792 30.2737 36.2792C32.0737 33.8792 32.0737 31.4792 32.0737 31.4792C32.0737 31.4792 33.8737 34.4792 38.0737 34.4792C44.0737 34.4792 44.0737 27.8792 44.0737 27.8792" stroke="black" stroke-width="1.8" stroke-linecap="round"/>
<path d="M9.87402 12.8789C5.07402 12.8789 0.874023 17.0789 0.874023 22.4789C0.934023 27.2789 4.59402 32.0789 9.87402 32.0789C15.874 32.0789 20.074 27.8789 20.074 22.4789H17.674C17.674 24.2789 15.874 26.6789 12.874 26.6789C9.87402 26.6789 8.67402 24.2789 8.67402 21.8789C8.67402 19.4789 11.074 17.0789 12.874 17.0789C15.874 17.0789 17.674 19.4789 17.674 21.8789V22.4789H20.074C20.074 17.0789 16.474 12.8789 9.87402 12.8789Z" fill="black"/>
<path d="M41.0738 19.479C44.0562 19.479 46.4738 17.0613 46.4738 14.079C46.4738 11.0966 44.0562 8.67896 41.0738 8.67896C38.0915 8.67896 35.6738 11.0966 35.6738 14.079C35.6738 17.0613 38.0915 19.479 41.0738 19.479Z" fill="black"/>
<path d="M23.674 25.479L35.674 21.879C36.874 21.279 38.074 21.279 37.474 23.679L33.274 31.479C32.674 32.679 32.074 32.679 31.474 31.479L23.674 27.279C21.874 26.679 23.674 25.479 23.674 25.479Z" fill="black"/>
</g>
<defs>
<clipPath id="clip0_585_338">
<rect width="60" height="60" fill="white" transform="translate(0.273926 0.279053)"/>
</clipPath>
</defs>
</svg>
