<svg width="33" height="33" viewBox="0 0 33 33" fill="none" xmlns="http://www.w3.org/2000/svg">
<mask id="mask0_533_431" style="mask-type:alpha" maskUnits="userSpaceOnUse" x="0" y="0" width="33" height="33">
<rect x="0.273926" y="0.374023" width="32" height="32" fill="#D9D9D9"/>
</mask>
<g mask="url(#mask0_533_431)">
<path d="M10.9404 15.0408C11.3182 15.0408 11.6349 14.913 11.8904 14.6574C12.146 14.4019 12.2738 14.0852 12.2738 13.7074C12.2738 13.3297 12.146 13.013 11.8904 12.7574C11.6349 12.5019 11.3182 12.3741 10.9404 12.3741C10.5627 12.3741 10.246 12.5019 9.99043 12.7574C9.73487 13.013 9.6071 13.3297 9.6071 13.7074C9.6071 14.0852 9.73487 14.4019 9.99043 14.6574C10.246 14.913 10.5627 15.0408 10.9404 15.0408ZM16.2738 15.0408C16.6515 15.0408 16.9682 14.913 17.2238 14.6574C17.4793 14.4019 17.6071 14.0852 17.6071 13.7074C17.6071 13.3297 17.4793 13.013 17.2238 12.7574C16.9682 12.5019 16.6515 12.3741 16.2738 12.3741C15.896 12.3741 15.5793 12.5019 15.3238 12.7574C15.0682 13.013 14.9404 13.3297 14.9404 13.7074C14.9404 14.0852 15.0682 14.4019 15.3238 14.6574C15.5793 14.913 15.896 15.0408 16.2738 15.0408ZM21.6071 15.0408C21.9849 15.0408 22.3015 14.913 22.5571 14.6574C22.8127 14.4019 22.9404 14.0852 22.9404 13.7074C22.9404 13.3297 22.8127 13.013 22.5571 12.7574C22.3015 12.5019 21.9849 12.3741 21.6071 12.3741C21.2293 12.3741 20.9127 12.5019 20.6571 12.7574C20.4015 13.013 20.2738 13.3297 20.2738 13.7074C20.2738 14.0852 20.4015 14.4019 20.6571 14.6574C20.9127 14.913 21.2293 15.0408 21.6071 15.0408ZM2.94043 29.7074V5.70744C2.94043 4.9741 3.20154 4.34633 3.72376 3.8241C4.24599 3.30188 4.87376 3.04077 5.6071 3.04077H26.9404C27.6738 3.04077 28.3015 3.30188 28.8238 3.8241C29.346 4.34633 29.6071 4.9741 29.6071 5.70744V21.7074C29.6071 22.4408 29.346 23.0685 28.8238 23.5908C28.3015 24.113 27.6738 24.3741 26.9404 24.3741H8.27376L2.94043 29.7074ZM7.14043 21.7074H26.9404V5.70744H5.6071V23.2074L7.14043 21.7074Z" fill="black"/>
</g>
</svg>
