<svg width="33" height="33" viewBox="0 0 33 33" fill="none" xmlns="http://www.w3.org/2000/svg">
<mask id="mask0_530_425" style="mask-type:alpha" maskUnits="userSpaceOnUse" x="0" y="0" width="33" height="33">
<rect x="0.273926" y="0.468994" width="32" height="32" fill="#D9D9D9"/>
</mask>
<g mask="url(#mask0_530_425)">
<path d="M16.2713 29.7997C14.4491 29.7997 12.7269 29.4497 11.1047 28.7497C9.48243 28.0497 8.06577 27.0942 6.85465 25.8831C5.64354 24.6719 4.68799 23.2553 3.98799 21.6331C3.28799 20.0108 2.93799 18.2886 2.93799 16.4664C2.93799 14.6219 3.28799 12.8942 3.98799 11.2831C4.68799 9.67195 5.64354 8.26083 6.85465 7.04972C8.06577 5.83861 9.48243 4.88306 11.1047 4.18306C12.7269 3.48306 14.4491 3.13306 16.2713 3.13306C18.1158 3.13306 19.8435 3.48306 21.4547 4.18306C23.0658 4.88306 24.4769 5.83861 25.688 7.04972C26.8991 8.26083 27.8547 9.67195 28.5547 11.2831C29.2547 12.8942 29.6047 14.6219 29.6047 16.4664C29.6047 18.2886 29.2547 20.0108 28.5547 21.6331C27.8547 23.2553 26.8991 24.6719 25.688 25.8831C24.4769 27.0942 23.0658 28.0497 21.4547 28.7497C19.8435 29.4497 18.1158 29.7997 16.2713 29.7997ZM16.2713 27.0664C16.8491 26.2664 17.3491 25.4331 17.7713 24.5664C18.1935 23.6997 18.538 22.7775 18.8047 21.7997H13.738C14.0047 22.7775 14.3491 23.6997 14.7713 24.5664C15.1935 25.4331 15.6935 26.2664 16.2713 27.0664ZM12.8047 26.5331C12.4047 25.7997 12.0547 25.0386 11.7547 24.2497C11.4547 23.4608 11.2047 22.6442 11.0047 21.7997H7.07132C7.71577 22.9108 8.52132 23.8775 9.48799 24.6997C10.4547 25.5219 11.5602 26.1331 12.8047 26.5331ZM19.738 26.5331C20.9824 26.1331 22.088 25.5219 23.0547 24.6997C24.0213 23.8775 24.8269 22.9108 25.4713 21.7997H21.538C21.338 22.6442 21.088 23.4608 20.788 24.2497C20.488 25.0386 20.138 25.7997 19.738 26.5331ZM5.93799 19.1331H10.4713C10.4047 18.6886 10.3547 18.2497 10.3213 17.8164C10.288 17.3831 10.2713 16.9331 10.2713 16.4664C10.2713 15.9997 10.288 15.5497 10.3213 15.1164C10.3547 14.6831 10.4047 14.2442 10.4713 13.7997H5.93799C5.82688 14.2442 5.74354 14.6831 5.68799 15.1164C5.63243 15.5497 5.60465 15.9997 5.60465 16.4664C5.60465 16.9331 5.63243 17.3831 5.68799 17.8164C5.74354 18.2497 5.82688 18.6886 5.93799 19.1331ZM13.138 19.1331H19.4047C19.4713 18.6886 19.5213 18.2497 19.5547 17.8164C19.588 17.3831 19.6047 16.9331 19.6047 16.4664C19.6047 15.9997 19.588 15.5497 19.5547 15.1164C19.5213 14.6831 19.4713 14.2442 19.4047 13.7997H13.138C13.0713 14.2442 13.0213 14.6831 12.988 15.1164C12.9547 15.5497 12.938 15.9997 12.938 16.4664C12.938 16.9331 12.9547 17.3831 12.988 17.8164C13.0213 18.2497 13.0713 18.6886 13.138 19.1331ZM22.0713 19.1331H26.6047C26.7158 18.6886 26.7991 18.2497 26.8547 17.8164C26.9102 17.3831 26.938 16.9331 26.938 16.4664C26.938 15.9997 26.9102 15.5497 26.8547 15.1164C26.7991 14.6831 26.7158 14.2442 26.6047 13.7997H22.0713C22.138 14.2442 22.188 14.6831 22.2213 15.1164C22.2547 15.5497 22.2713 15.9997 22.2713 16.4664C22.2713 16.9331 22.2547 17.3831 22.2213 17.8164C22.188 18.2497 22.138 18.6886 22.0713 19.1331ZM21.538 11.1331H25.4713C24.8269 10.0219 24.0213 9.05528 23.0547 8.23306C22.088 7.41083 20.9824 6.79972 19.738 6.39972C20.138 7.13306 20.488 7.89417 20.788 8.68306C21.088 9.47194 21.338 10.2886 21.538 11.1331ZM13.738 11.1331H18.8047C18.538 10.1553 18.1935 9.23306 17.7713 8.36639C17.3491 7.49972 16.8491 6.66639 16.2713 5.86639C15.6935 6.66639 15.1935 7.49972 14.7713 8.36639C14.3491 9.23306 14.0047 10.1553 13.738 11.1331ZM7.07132 11.1331H11.0047C11.2047 10.2886 11.4547 9.47194 11.7547 8.68306C12.0547 7.89417 12.4047 7.13306 12.8047 6.39972C11.5602 6.79972 10.4547 7.41083 9.48799 8.23306C8.52132 9.05528 7.71577 10.0219 7.07132 11.1331Z" fill="black"/>
</g>
</svg>
